<mxfile host="app.diagrams.net" modified="2021-09-26T15:05:14.813Z" agent="5.0 (Windows NT 10.0; Win64; x64) AppleWebKit/537.36 (KHTML, like Gecko) Chrome/93.0.4577.82 Safari/537.36 Edg/93.0.961.52" etag="mXmzuoscY8fAm-QQo1yC" version="15.3.3" type="github">
  <diagram name="Page-1" id="e7e014a7-5840-1c2e-5031-d8a46d1fe8dd">
    <mxGraphModel dx="1038" dy="579" grid="1" gridSize="10" guides="1" tooltips="1" connect="1" arrows="1" fold="1" page="1" pageScale="1" pageWidth="1169" pageHeight="826" background="none" math="0" shadow="0">
      <root>
        <mxCell id="0" />
        <mxCell id="1" parent="0" />
        <mxCell id="2" value="盲点检测器" style="swimlane;whiteSpace=wrap" parent="1" vertex="1">
          <mxGeometry x="164.5" y="128" width="280" height="570" as="geometry" />
        </mxCell>
        <mxCell id="5" value="" style="ellipse;shape=startState;fillColor=#000000;strokeColor=#ff0000;" parent="2" vertex="1">
          <mxGeometry x="125.5" y="42" width="30" height="30" as="geometry" />
        </mxCell>
        <mxCell id="6" value="" style="edgeStyle=elbowEdgeStyle;elbow=horizontal;verticalAlign=bottom;endArrow=open;endSize=8;strokeColor=#FF0000;endFill=1;rounded=0" parent="2" source="5" target="7" edge="1">
          <mxGeometry x="125.5" y="42" as="geometry">
            <mxPoint x="140.5" y="112" as="targetPoint" />
          </mxGeometry>
        </mxCell>
        <mxCell id="zthBBQ5ApJd8Z_UlrUpK-45" style="edgeStyle=orthogonalEdgeStyle;rounded=0;orthogonalLoop=1;jettySize=auto;html=1;exitX=0.5;exitY=1;exitDx=0;exitDy=0;entryX=0.5;entryY=0;entryDx=0;entryDy=0;endArrow=open;startSize=14;endSize=14;sourcePerimeterSpacing=8;targetPerimeterSpacing=8;strokeColor=#FF0000;" edge="1" parent="2" source="7" target="zthBBQ5ApJd8Z_UlrUpK-44">
          <mxGeometry relative="1" as="geometry" />
        </mxCell>
        <mxCell id="7" value="盲点检测" style="" parent="2" vertex="1">
          <mxGeometry x="85.5" y="112" width="110" height="50" as="geometry" />
        </mxCell>
        <mxCell id="zthBBQ5ApJd8Z_UlrUpK-44" value="存在障碍物？" style="rhombus;whiteSpace=wrap;html=1;hachureGap=4;pointerEvents=0;" vertex="1" parent="2">
          <mxGeometry x="95.5" y="257" width="90.5" height="56" as="geometry" />
        </mxCell>
        <mxCell id="3" value="警报器" style="swimlane;whiteSpace=wrap;startSize=23;" parent="1" vertex="1">
          <mxGeometry x="444.5" y="128" width="280" height="570" as="geometry" />
        </mxCell>
        <mxCell id="zthBBQ5ApJd8Z_UlrUpK-47" value="发出警报" style="" vertex="1" parent="3">
          <mxGeometry x="85.75" y="260" width="110" height="50" as="geometry" />
        </mxCell>
        <mxCell id="4" value="驾驶员" style="swimlane;whiteSpace=wrap" parent="1" vertex="1">
          <mxGeometry x="724.5" y="128" width="280" height="570" as="geometry" />
        </mxCell>
        <mxCell id="38" value="" style="ellipse;shape=endState;fillColor=#000000;strokeColor=#ff0000" parent="4" vertex="1">
          <mxGeometry x="125.25" y="500" width="30" height="30" as="geometry" />
        </mxCell>
        <mxCell id="zthBBQ5ApJd8Z_UlrUpK-50" value="移除障碍物" style="" vertex="1" parent="4">
          <mxGeometry x="85.25" y="260" width="110" height="50" as="geometry" />
        </mxCell>
        <mxCell id="zthBBQ5ApJd8Z_UlrUpK-48" style="edgeStyle=orthogonalEdgeStyle;rounded=0;orthogonalLoop=1;jettySize=auto;html=1;exitX=1;exitY=0.5;exitDx=0;exitDy=0;entryX=0;entryY=0.5;entryDx=0;entryDy=0;endArrow=open;startSize=14;endSize=14;sourcePerimeterSpacing=8;targetPerimeterSpacing=8;strokeColor=#FF0000;" edge="1" parent="1" source="zthBBQ5ApJd8Z_UlrUpK-44" target="zthBBQ5ApJd8Z_UlrUpK-47">
          <mxGeometry relative="1" as="geometry" />
        </mxCell>
        <mxCell id="zthBBQ5ApJd8Z_UlrUpK-49" value="是" style="edgeLabel;html=1;align=center;verticalAlign=middle;resizable=0;points=[];" vertex="1" connectable="0" parent="zthBBQ5ApJd8Z_UlrUpK-48">
          <mxGeometry x="-0.2083" relative="1" as="geometry">
            <mxPoint x="9" as="offset" />
          </mxGeometry>
        </mxCell>
        <mxCell id="zthBBQ5ApJd8Z_UlrUpK-51" style="edgeStyle=orthogonalEdgeStyle;rounded=0;orthogonalLoop=1;jettySize=auto;html=1;exitX=1;exitY=0.5;exitDx=0;exitDy=0;entryX=0;entryY=0.5;entryDx=0;entryDy=0;endArrow=open;startSize=14;endSize=14;sourcePerimeterSpacing=8;targetPerimeterSpacing=8;strokeColor=#FF0000;" edge="1" parent="1" source="zthBBQ5ApJd8Z_UlrUpK-47" target="zthBBQ5ApJd8Z_UlrUpK-50">
          <mxGeometry relative="1" as="geometry" />
        </mxCell>
        <mxCell id="zthBBQ5ApJd8Z_UlrUpK-52" style="edgeStyle=orthogonalEdgeStyle;rounded=0;orthogonalLoop=1;jettySize=auto;html=1;exitX=0.5;exitY=1;exitDx=0;exitDy=0;entryX=0.5;entryY=0;entryDx=0;entryDy=0;endArrow=open;startSize=14;endSize=14;targetPerimeterSpacing=8;strokeColor=#FF0000;startArrow=none;" edge="1" parent="1" source="zthBBQ5ApJd8Z_UlrUpK-56" target="38">
          <mxGeometry relative="1" as="geometry" />
        </mxCell>
        <mxCell id="zthBBQ5ApJd8Z_UlrUpK-55" style="edgeStyle=orthogonalEdgeStyle;rounded=0;orthogonalLoop=1;jettySize=auto;html=1;exitX=0.5;exitY=0;exitDx=0;exitDy=0;entryX=0.5;entryY=0;entryDx=0;entryDy=0;endArrow=open;startSize=14;endSize=14;sourcePerimeterSpacing=8;targetPerimeterSpacing=8;strokeColor=#FF0000;" edge="1" parent="1" source="zthBBQ5ApJd8Z_UlrUpK-50" target="zthBBQ5ApJd8Z_UlrUpK-44">
          <mxGeometry relative="1" as="geometry">
            <Array as="points">
              <mxPoint x="865" y="320" />
              <mxPoint x="305" y="320" />
            </Array>
          </mxGeometry>
        </mxCell>
        <mxCell id="zthBBQ5ApJd8Z_UlrUpK-56" value="启动车辆" style="" vertex="1" parent="1">
          <mxGeometry x="809.5" y="490" width="110" height="50" as="geometry" />
        </mxCell>
        <mxCell id="zthBBQ5ApJd8Z_UlrUpK-57" value="" style="edgeStyle=orthogonalEdgeStyle;rounded=0;orthogonalLoop=1;jettySize=auto;html=1;exitX=0.5;exitY=1;exitDx=0;exitDy=0;entryX=0;entryY=0.5;entryDx=0;entryDy=0;endArrow=none;startSize=14;endSize=14;sourcePerimeterSpacing=8;strokeColor=#FF0000;" edge="1" parent="1" source="zthBBQ5ApJd8Z_UlrUpK-44" target="zthBBQ5ApJd8Z_UlrUpK-56">
          <mxGeometry relative="1" as="geometry">
            <mxPoint x="305.25" y="426" as="sourcePoint" />
            <mxPoint x="869.5" y="628" as="targetPoint" />
          </mxGeometry>
        </mxCell>
        <mxCell id="zthBBQ5ApJd8Z_UlrUpK-60" value="否" style="edgeLabel;html=1;align=center;verticalAlign=middle;resizable=0;points=[];" vertex="1" connectable="0" parent="zthBBQ5ApJd8Z_UlrUpK-57">
          <mxGeometry x="0.4885" y="-2" relative="1" as="geometry">
            <mxPoint x="-73" y="-2" as="offset" />
          </mxGeometry>
        </mxCell>
      </root>
    </mxGraphModel>
  </diagram>
</mxfile>
